<svg width="1034" height="735" viewBox="0 0 1034 735" fill="none" xmlns="http://www.w3.org/2000/svg">
<mask id="mask0_3603_3479" style="mask-type:alpha" maskUnits="userSpaceOnUse" x="0" y="0" width="1034" height="735">
<path d="M0 0H1034V735H0V0Z" fill="white"/>
</mask>
<g mask="url(#mask0_3603_3479)">
<ellipse cx="557.949" cy="282.181" rx="557.949" ry="282.181" transform="matrix(-0.88523 -0.465154 -0.465154 0.88523 1142.34 377.065)" stroke="#B19673" stroke-opacity="0.8" stroke-width="2" stroke-linecap="round"/>
<ellipse cx="520.003" cy="262.99" rx="520.003" ry="262.99" transform="matrix(-0.911479 -0.411346 -0.411346 0.911479 1099.32 341.519)" stroke="#B19673" stroke-opacity="0.6" stroke-width="2" stroke-linecap="round"/>
<ellipse cx="480.566" cy="243.045" rx="480.566" ry="243.045" transform="matrix(-0.939061 -0.343752 -0.343752 0.939061 1052 304.289)" stroke="#B19673" stroke-opacity="0.4" stroke-width="2" stroke-linecap="round"/>
<ellipse cx="442.975" cy="224.033" rx="442.975" ry="224.033" transform="matrix(-0.962841 -0.270068 -0.270068 0.962841 1004.19 271.252)" stroke="#B19673" stroke-opacity="0.3" stroke-width="2" stroke-linecap="round"/>
<ellipse cx="557.949" cy="282.181" rx="557.949" ry="282.181" transform="matrix(-0.88523 -0.465154 -0.465154 0.88523 1142.34 377.065)" stroke="#B19673" stroke-opacity="0.8" stroke-width="2" stroke-linecap="round"/>
<ellipse cx="520.003" cy="262.99" rx="520.003" ry="262.99" transform="matrix(-0.911479 -0.411346 -0.411346 0.911479 1099.32 341.519)" stroke="#B19673" stroke-opacity="0.6" stroke-width="2" stroke-linecap="round"/>
<ellipse cx="480.566" cy="243.045" rx="480.566" ry="243.045" transform="matrix(-0.939061 -0.343752 -0.343752 0.939061 1052 304.289)" stroke="#B19673" stroke-opacity="0.4" stroke-width="2" stroke-linecap="round"/>
<ellipse cx="442.975" cy="224.033" rx="442.975" ry="224.033" transform="matrix(-0.962841 -0.270068 -0.270068 0.962841 1004.19 271.252)" stroke="#B19673" stroke-opacity="0.3" stroke-width="2" stroke-linecap="round"/>
</g>
</svg>
